# xmcd
#
# Track frame offsets: 
#        150
#        13452
#        25835
#        38612
#        50372
#        63472
#        76720
#        91367
#        105072
#        120495
#        133937
#        145780
#        160055
#        174822
#        187967
#        201252
#        214525
#        226227
#        240727
#        255405
#        267317
#        280950
#
# Disc length: 3913 seconds
#
# Revision: 1
# Processed by: cddbd v1.5.2PL0 Copyright (c) Steve Scherf et al.
# Submitted via: ExactAudioCopy v0.99pb4
#
DISCID=1e0f4716
DTITLE=Big Joe Turner - Volume 2 1940-1941 Complete Edition
DYEAR=1999
DGENRE=Blues
TTITLE0=Piney Brown Blues
TTITLE1=Doggin' The Dog
TTITLE2=Careless Love
TTITLE3=Jumpin' Down Blues
TTITLE4=Rainy Day Blues
TTITLE5=Wee Baby Blues
TTITLE6=Last Goodbye Blues
TTITLE7=Lucille
TTITLE8=Lucille
TTITLE9=Rock Me, Mama
TTITLE10=Corrina, Corrina
TTITLE11=Lonesome Graveyard Blues
TTITLE12=Lonesome Graveyard Blues
TTITLE13=Nobody In Mind
TTITLE14=Somebody's Got To Go
TTITLE15=Ice Man
TTITLE16=Chewed Up Grass
TTITLE17=Rocks In My Bed
TTITLE18=Rocks In My Bed
TTITLE19=Blues On Central Avenue
TTITLE20=Goin' To Chicago Blues
TTITLE21=Sun Risin' Blues
EXTD=YEAR: 1941
EXTT0=
EXTT1=
EXTT2=
EXTT3=
EXTT4=
EXTT5=
EXTT6=
EXTT7=
EXTT8=
EXTT9=
EXTT10=
EXTT11=
EXTT12=
EXTT13=
EXTT14=
EXTT15=
EXTT16=
EXTT17=
EXTT18=
EXTT19=
EXTT20=
EXTT21=
PLAYORDER=
